<?xml version="1.0" encoding="UTF-8"?>
<svg id="Layer_10" data-name="Layer 10" xmlns="http://www.w3.org/2000/svg" xmlns:xlink="http://www.w3.org/1999/xlink" viewBox="0 0 3072 3072">
  <defs>
    <style>
      .cls-1 {
        fill: url(#radial-gradient);
      }

      .cls-2 {
        fill: url(#radial-gradient-2);
      }

      .cls-3 {
        fill: url(#radial-gradient-3);
      }
    </style>
    <radialGradient id="radial-gradient" cx="1877.71" cy="1061.36" fx="1877.71" fy="1061.36" r="1528.59" gradientUnits="userSpaceOnUse">
      <stop offset="0" stop-color="#725bff"/>
      <stop offset=".41" stop-color="#735bfe"/>
      <stop offset=".56" stop-color="#7a5bfd"/>
      <stop offset=".67" stop-color="#865dfc"/>
      <stop offset=".76" stop-color="#975efa"/>
      <stop offset=".84" stop-color="#ad60f7"/>
      <stop offset=".91" stop-color="#c963f3"/>
      <stop offset=".97" stop-color="#e866ef"/>
      <stop offset="1" stop-color="#ff69ed"/>
    </radialGradient>
    <radialGradient id="radial-gradient-2" cx="1218.64" cy="2179.65" fx="1218.64" fy="2179.65" r="841.43" gradientUnits="userSpaceOnUse">
      <stop offset="0" stop-color="#725bff"/>
      <stop offset=".15" stop-color="#765bfe"/>
      <stop offset=".32" stop-color="#845cfc"/>
      <stop offset=".51" stop-color="#9b5ff9"/>
      <stop offset=".7" stop-color="#bb62f5"/>
      <stop offset=".89" stop-color="#e466f0"/>
      <stop offset="1" stop-color="#ff69ed"/>
    </radialGradient>
    <radialGradient id="radial-gradient-3" cx="1234.53" cy="1903.78" fx="1234.53" fy="1903.78" r="1252.99" gradientUnits="userSpaceOnUse">
      <stop offset="0" stop-color="#725bff"/>
      <stop offset="1" stop-color="#ff69ed"/>
    </radialGradient>
  </defs>
  <path class="cls-1" d="m2209.83,910.66c-2.47-1.74-4.09-4.44-4.45-7.44-24.15-199.12-211.75-183.48-256.79-176.79-5.6.83-10.91-2.84-12.05-8.39-32.87-159.4,137.62-343.65,203.49-407.81,7.58-7.38,1.04-20.15-9.38-18.27-281.04,50.89-367.86,283.74-392.41,383.33-2.74,11.11-18.61,10.75-20.95-.45-25.62-122.52-1.39-245.52,13.5-302.84,2.67-10.28-9.64-17.8-17.54-10.7-189.1,169.97-127,413.5-96.56,499.93,3.56,10.12-8.3,18.61-16.75,12.01-68.65-53.63-109.42-136.84-127.13-180.02-3.91-9.54-17.69-8.57-20.33,1.4-37.13,140.7,42.65,323.37,68.73,377.48,4.7,9.74,3.3,21.32-3.58,29.67l-122.3,148.54c-5.98,7.26-14.66,11.77-24.04,12.44-52.51,3.78-242.06,31.17-439.06,228.18-176.42,176.42-207.03,389.9-211.81,438.12-.56,5.68,3.39,10.8,9.03,11.67,25.05,3.88,96.03,12.63,191.6,5.37,145.43-11.04,347.79-59.12,531.87-217.74,7.89-6.8,19.9.44,17.49,10.57-38.33,161.22-113.56,275.64-195.99,356.43-1.4,1.38-2.41,3.1-2.9,5-12.2,47.21-21.93,93.87-29.6,139.49,0,0,667.49-88.33,747.58-960.77.47-5.1,4.45-9.17,9.55-9.7,38.03-3.97,190.53-24.48,270.01-103.71-.04-.07-.1-.12-.14-.19-.39-.59-41.12-61.05-107.15-70.49-.84-.12-1.6-.2-2.31-.25-9.29-.57-42.24-3.52-76.36-17.53-6.63-2.72-9.81-10.33-7.09-16.96,1.32-3.21,3.81-5.72,7.01-7.06,3.21-1.34,6.74-1.35,9.95-.03,31.21,12.82,62.18,15.27,68.08,15.63,1.42.09,2.86.24,4.4.46,58.95,8.43,99.16,49.18,116.16,69.92,1.8,2.01,3.55,4.05,5.23,6.1,0,0,0,0,0-.01,0,0,6.85,8.81,9.85,13.24,10.61,15.62,17.9,31.2,22.72,43.67,3.55,9.17,16.59,9.17,20.04-.04,56.93-152.27-102.31-272.28-129.61-291.47Zm-271.05,76.88c-30.93,0-56-25.07-56-56s25.07-56,56-56,56,25.07,56,56-25.07,56-56,56Z"/>
  <path class="cls-2" d="m1302.26,2080.91c-71.82,69.78-148.91,114.18-211.71,141.88,0,0-48.77,76,149.1,550.79,4.8,11.52,22.09,6.98,20.58-5.41-13.35-109.23-27.27-313.47,11.68-544.86,7.84-46.55,17.81-94.2,30.36-142.4Z"/>
  <path class="cls-3" d="m1304.35,2082.54h0c78.91-81.65,150.03-195.69,184.47-353.84,2.94-13.48-13.13-22.84-23.4-13.62-176.99,158.79-374,211.87-516.88,227.26-29.52,243.57,1.39,312.44,14.33,329.89,2.56,3.45,6.9,5.04,11.08,4.05,16.07-3.83,63.2-16.46,123.27-45.25h0c61.9-29.66,137.55-76.47,207.14-148.48h0Z"/>
</svg>